# xmcd CD database file
#
# Track frame offsets:
#	150
#	22625
#	40170
#	60539
#
# Disc length: 1104 seconds
#
# Revision: 0
# Processed by: cddbd v1.5.2PL0 Copyright (c) Steve Scherf et al.
# Submitted via: CD2WAV32(JP) R3.22
#
DISCID=22044e04
DTITLE=Snow＊ - Chain
DYEAR=2008
DGENRE=Anime
TTITLE0=Chain
TTITLE1=眠れる森につたわる詩
TTITLE2=Hello bye-bye
TTITLE3=Chain （instrumental）
EXTD=
EXTT0=「シゴフミ」 エンディングテーマ
EXTT1=
EXTT2=
EXTT3=
PLAYORDER=
